<mxfile host="app.diagrams.net" modified="2023-06-26T19:00:01.079Z" agent="Mozilla/5.0 (Windows NT 10.0; Win64; x64) AppleWebKit/537.36 (KHTML, like Gecko) Chrome/114.0.0.0 Safari/537.36" etag="RXx-xQg9m7q4f7zVK14-" version="21.5.0" type="github">
  <diagram name="Sayfa -1" id="Yftv6KDeQWLXVW2FEjG2">
    <mxGraphModel dx="375" dy="205" grid="1" gridSize="10" guides="1" tooltips="1" connect="1" arrows="1" fold="1" page="1" pageScale="1" pageWidth="827" pageHeight="1169" math="0" shadow="0">
      <root>
        <mxCell id="0" />
        <mxCell id="1" parent="0" />
        <mxCell id="apfrUaYv4D3_fWxfjolO-1" value="" style="rounded=0;whiteSpace=wrap;html=1;" vertex="1" parent="1">
          <mxGeometry x="350" y="80" width="120" height="80" as="geometry" />
        </mxCell>
      </root>
    </mxGraphModel>
  </diagram>
</mxfile>
